<?xml version="1.0" encoding="UTF-8" ?>
<svg version="1.1" width="20" height="20" xmlns="http://www.w3.org/2000/svg" shape-rendering="crispEdges">
<rect x="6" y="0" width="2" height="8" fill="#DD9955" />
<rect x="8" y="0" width="3" height="1" fill="#BB8855" />
<rect x="11" y="0" width="1" height="1" fill="#DD9955" />
<rect x="2" y="1" width="2" height="3" fill="#DD9955" />
<rect x="4" y="1" width="1" height="1" fill="#553311" />
<rect x="5" y="1" width="1" height="3" fill="#BB8855" />
<rect x="8" y="1" width="3" height="14" fill="#DD9955" />
<rect x="11" y="1" width="1" height="1" fill="#AA7733" />
<rect x="12" y="1" width="1" height="2" fill="#DD9955" />
<rect x="13" y="1" width="1" height="3" fill="#AA7733" />
<rect x="14" y="1" width="2" height="1" fill="#DD9955" />
<rect x="1" y="2" width="1" height="9" fill="#DD9955" />
<rect x="4" y="2" width="1" height="2" fill="#DD9955" />
<rect x="11" y="2" width="1" height="1" fill="#DD9955" />
<rect x="14" y="2" width="1" height="2" fill="#BB8855" />
<rect x="15" y="2" width="2" height="2" fill="#DD9955" />
<rect x="11" y="3" width="1" height="2" fill="#BB8855" />
<rect x="12" y="3" width="1" height="1" fill="#AA7733" />
<rect x="17" y="3" width="1" height="1" fill="#DD9955" />
<rect x="2" y="4" width="2" height="2" fill="#BB8855" />
<rect x="4" y="4" width="1" height="2" fill="#AA7733" />
<rect x="5" y="4" width="1" height="1" fill="#553311" />
<rect x="12" y="4" width="2" height="2" fill="#BB8855" />
<rect x="14" y="4" width="1" height="2" fill="#553311" />
<rect x="15" y="4" width="3" height="1" fill="#BB8855" />
<rect x="18" y="4" width="1" height="2" fill="#DD9955" />
<rect x="5" y="5" width="1" height="3" fill="#BB8855" />
<rect x="11" y="5" width="1" height="1" fill="#DD9955" />
<rect x="15" y="5" width="1" height="1" fill="#553311" />
<rect x="16" y="5" width="2" height="3" fill="#DD9955" />
<rect x="2" y="6" width="2" height="6" fill="#AA7733" />
<rect x="4" y="6" width="1" height="5" fill="#DD9955" />
<rect x="11" y="6" width="1" height="2" fill="#BB8855" />
<rect x="12" y="6" width="4" height="2" fill="#DD9955" />
<rect x="18" y="6" width="1" height="2" fill="#553311" />
<rect x="19" y="6" width="1" height="7" fill="#DD9955" />
<rect x="0" y="7" width="1" height="6" fill="#DD9955" />
<rect x="5" y="8" width="1" height="3" fill="#553311" />
<rect x="6" y="8" width="1" height="1" fill="#DD9955" />
<rect x="7" y="8" width="1" height="1" fill="#553311" />
<rect x="11" y="8" width="1" height="4" fill="#553311" />
<rect x="12" y="8" width="1" height="2" fill="#DD9955" />
<rect x="13" y="8" width="1" height="1" fill="#553311" />
<rect x="14" y="8" width="2" height="3" fill="#DD9955" />
<rect x="16" y="8" width="2" height="3" fill="#BB8855" />
<rect x="18" y="8" width="1" height="3" fill="#DD9955" />
<rect x="6" y="9" width="1" height="2" fill="#553311" />
<rect x="7" y="9" width="1" height="5" fill="#DD9955" />
<rect x="13" y="9" width="1" height="1" fill="#DD9955" />
<rect x="12" y="10" width="2" height="1" fill="#553311" />
<rect x="1" y="11" width="1" height="1" fill="#553311" />
<rect x="4" y="11" width="2" height="1" fill="#BB8855" />
<rect x="6" y="11" width="1" height="3" fill="#DD9955" />
<rect x="12" y="11" width="2" height="1" fill="#DD9955" />
<rect x="14" y="11" width="2" height="1" fill="#BB8855" />
<rect x="16" y="11" width="2" height="1" fill="#553311" />
<rect x="18" y="11" width="1" height="1" fill="#BB8855" />
<rect x="1" y="12" width="1" height="3" fill="#DD9955" />
<rect x="2" y="12" width="2" height="3" fill="#BB8855" />
<rect x="4" y="12" width="1" height="2" fill="#DD9955" />
<rect x="5" y="12" width="1" height="3" fill="#BB8855" />
<rect x="11" y="12" width="3" height="1" fill="#BB8855" />
<rect x="14" y="12" width="2" height="2" fill="#DD9955" />
<rect x="16" y="12" width="2" height="2" fill="#AA7733" />
<rect x="18" y="12" width="1" height="4" fill="#DD9955" />
<rect x="11" y="13" width="1" height="1" fill="#DD9955" />
<rect x="12" y="13" width="2" height="1" fill="#BB8855" />
<rect x="4" y="14" width="1" height="2" fill="#BB8855" />
<rect x="6" y="14" width="2" height="2" fill="#553311" />
<rect x="11" y="14" width="1" height="2" fill="#BB8855" />
<rect x="12" y="14" width="1" height="1" fill="#DD9955" />
<rect x="13" y="14" width="1" height="2" fill="#BB8855" />
<rect x="14" y="14" width="1" height="1" fill="#DD9955" />
<rect x="15" y="14" width="3" height="1" fill="#BB8855" />
<rect x="2" y="15" width="2" height="1" fill="#DD9955" />
<rect x="5" y="15" width="1" height="1" fill="#DD9955" />
<rect x="8" y="15" width="3" height="1" fill="#553311" />
<rect x="12" y="15" width="1" height="1" fill="#BB8855" />
<rect x="14" y="15" width="1" height="1" fill="#553311" />
<rect x="15" y="15" width="3" height="3" fill="#DD9955" />
<rect x="3" y="16" width="2" height="1" fill="#553311" />
<rect x="5" y="16" width="1" height="2" fill="#BB8855" />
<rect x="6" y="16" width="6" height="2" fill="#DD9955" />
<rect x="12" y="16" width="2" height="2" fill="#553311" />
<rect x="14" y="16" width="1" height="2" fill="#BB8855" />
<rect x="4" y="17" width="1" height="1" fill="#553311" />
<rect x="4" y="18" width="2" height="1" fill="#DD9955" />
<rect x="6" y="18" width="2" height="1" fill="#BB8855" />
<rect x="8" y="18" width="3" height="1" fill="#553311" />
<rect x="11" y="18" width="5" height="1" fill="#DD9955" />
<rect x="6" y="19" width="2" height="1" fill="#DD9955" />
<rect x="8" y="19" width="3" height="1" fill="#BB8855" />
<rect x="11" y="19" width="3" height="1" fill="#DD9955" />
</svg>